<svg xmlns="http://www.w3.org/2000/svg" viewBox="0 0 852.15 1000.00" role="img" aria-labelledby="t d">
  <title id="t">Bevro</title>
  <desc id="d">Bevro logomark: two layered chevrons indicating forward motion</desc>
  <defs><linearGradient id="mgA" gradientUnits="userSpaceOnUse" x1="-202.62" y1="70.06" x2="-102.26" y2="1024.85"><stop offset="0.00" stop-color="#F8D899"/><stop offset="0.10" stop-color="#E6C092"/><stop offset="0.20" stop-color="#C99584"/><stop offset="0.30" stop-color="#A05A6D"/><stop offset="0.40" stop-color="#782753"/><stop offset="0.50" stop-color="#510F3F"/><stop offset="0.60" stop-color="#3F0936"/><stop offset="0.70" stop-color="#4E1442"/><stop offset="0.80" stop-color="#894770"/><stop offset="0.90" stop-color="#B57B91"/><stop offset="1.00" stop-color="#CC97A1"/></linearGradient><linearGradient id="mgB" gradientUnits="userSpaceOnUse" x1="-188.11" y1="208.09" x2="-121.68" y2="840.12"><stop offset="0.00" stop-color="#E5B4B1"/><stop offset="0.10" stop-color="#DBABAF"/><stop offset="0.20" stop-color="#C592A5"/><stop offset="0.30" stop-color="#A37095"/><stop offset="0.40" stop-color="#804A7B"/><stop offset="0.50" stop-color="#6F366B"/><stop offset="0.60" stop-color="#74396A"/><stop offset="0.70" stop-color="#874E7B"/><stop offset="0.80" stop-color="#9A6389"/><stop offset="0.90" stop-color="#BB859D"/><stop offset="1.00" stop-color="#D19EA8"/></linearGradient><clipPath id="mcA"><path d="M248.11 193.85A109.59 109.59 0 0 1 385.05 22.76L763.29 313.98A227.88 227.88 0 0 1 755.21 681.04L327.2 981.5A101.9 101.9 0 1 1 211.67 813.63L415.49 676.13A206.09 206.09 0 0 0 432.02 346.83Z"/></clipPath><clipPath id="mcB"><path d="M32.18 338.19A102.59 102.59 0 0 1 166.91 183.87L354.52 329.63A215.28 215.28 0 0 1 346.94 675.27L149.88 814.95A94.97 94.97 0 0 1 30.84 667.42L85.72 617.19A153.5 153.5 0 0 0 89.48 394.3Z"/></clipPath></defs>
  <path d="M248.11 193.85A109.59 109.59 0 0 1 385.05 22.76L763.29 313.98A227.88 227.88 0 0 1 755.21 681.04L327.2 981.5A101.9 101.9 0 1 1 211.67 813.63L415.49 676.13A206.09 206.09 0 0 0 432.02 346.83Z" fill="url(#mgA)"/><path d="M32.18 338.19A102.59 102.59 0 0 1 166.91 183.87L354.52 329.63A215.28 215.28 0 0 1 346.94 675.27L149.88 814.95A94.97 94.97 0 0 1 30.84 667.42L85.72 617.19A153.5 153.5 0 0 0 89.48 394.3Z" fill="url(#mgB)"/>
</svg>
