<svg xmlns="http://www.w3.org/2000/svg" viewBox="0 0 852.15 1000.00" role="img" aria-labelledby="t d">
  <title id="t">Bevro</title>
  <desc id="d">Bevro logomark: two layered chevrons indicating forward motion</desc>
  <defs><linearGradient id="lgA" gradientUnits="userSpaceOnUse" x1="-202.62" y1="70.06" x2="-102.26" y2="1024.85"><stop offset="0.00" stop-color="#F8D899"/><stop offset="0.10" stop-color="#E6C092"/><stop offset="0.20" stop-color="#C99584"/><stop offset="0.30" stop-color="#A05A6D"/><stop offset="0.40" stop-color="#8A456B"/><stop offset="0.50" stop-color="#693059"/><stop offset="0.60" stop-color="#592B52"/><stop offset="0.70" stop-color="#66345C"/><stop offset="0.80" stop-color="#894770"/><stop offset="0.90" stop-color="#B57B91"/><stop offset="1.00" stop-color="#CC97A1"/></linearGradient><linearGradient id="lgB" gradientUnits="userSpaceOnUse" x1="-188.11" y1="208.09" x2="-121.68" y2="840.12"><stop offset="0.00" stop-color="#E5B4B1"/><stop offset="0.10" stop-color="#DBABAF"/><stop offset="0.20" stop-color="#C592A5"/><stop offset="0.30" stop-color="#A37095"/><stop offset="0.40" stop-color="#91638D"/><stop offset="0.50" stop-color="#83527F"/><stop offset="0.60" stop-color="#87547E"/><stop offset="0.70" stop-color="#97668D"/><stop offset="0.80" stop-color="#9A6389"/><stop offset="0.90" stop-color="#BB859D"/><stop offset="1.00" stop-color="#D19EA8"/></linearGradient><clipPath id="lcA"><path d="M248.11 193.85A109.59 109.59 0 0 1 385.05 22.76L763.29 313.98A227.88 227.88 0 0 1 755.21 681.04L327.2 981.5A101.9 101.9 0 1 1 211.67 813.63L415.49 676.13A206.09 206.09 0 0 0 432.02 346.83Z"/></clipPath><clipPath id="lcB"><path d="M32.18 338.19A102.59 102.59 0 0 1 166.91 183.87L354.52 329.63A215.28 215.28 0 0 1 346.94 675.27L149.88 814.95A94.97 94.97 0 0 1 30.84 667.42L85.72 617.19A153.5 153.5 0 0 0 89.48 394.3Z"/></clipPath></defs>
  <path d="M248.11 193.85A109.59 109.59 0 0 1 385.05 22.76L763.29 313.98A227.88 227.88 0 0 1 755.21 681.04L327.2 981.5A101.9 101.9 0 1 1 211.67 813.63L415.49 676.13A206.09 206.09 0 0 0 432.02 346.83Z" fill="url(#lgA)"/><g clip-path="url(#lcA)"><path d="M643.16 524.75L-1237.16 -1075.25L-4437.16 -1075.25L-4951.24 2124.75L-1751.24 2124.75Z" fill="#1A0416" opacity="0.11"/></g><path d="M32.18 338.19A102.59 102.59 0 0 1 166.91 183.87L354.52 329.63A215.28 215.28 0 0 1 346.94 675.27L149.88 814.95A94.97 94.97 0 0 1 30.84 667.42L85.72 617.19A153.5 153.5 0 0 0 89.48 394.3Z" fill="url(#lgB)"/><g clip-path="url(#lcB)"><path d="M240.60 516.16L-1611.88 -1083.84L-4811.88 -1083.84L-5210.76 2116.16L-2010.76 2116.16Z" fill="#1A0416" opacity="0.17"/></g>
</svg>
